<svg xmlns="http://www.w3.org/2000/svg" class="leaflet-zoom-animated" width="1978" height="1170" viewBox="-302 -178 1978 1170" style="transform: translate3d(-302px, -178px, 0px);"><g><path stroke-linejoin="round" stroke-linecap="round" fill-rule="evenodd" stroke="#333" stroke-opacity="1" stroke-width="1" fill="transparent" fill-opacity="0.2" class="leaflet-clickable" d="M729 188L729 185L732 181L740 180L745 183L746 180L753 179L755 187L753 187L752 190L756 194L757 193L760 195L757 199L758 201L762 203L763 202L770 207L772 213L776 216L779 216L782 220L793 218L798 225L805 224L806 229L811 230L812 235L814 237L813 239L815 241L814 243L820 254L822 253L824 255L824 259L827 263L827 270L823 276L826 282L826 286L819 295L818 301L818 303L821 305L823 313L829 312L830 314L836 314L837 316L840 317L850 316L860 319L866 317L869 317L871 319L880 319L888 322L902 332L902 334L908 337L910 340L915 341L917 343L926 341L927 342L925 344L924 350L929 351L938 376L948 385L948 391L942 394L939 400L941 400L940 403L944 406L941 408L943 411L936 418L930 419L925 423L924 426L920 420L914 423L911 427L906 428L894 440L890 447L889 453L870 456L863 488L856 496L858 503L854 503L821 513L817 512L818 513L813 518L806 518L806 522L809 525L811 525L811 523L815 523L815 540L818 540L824 546L826 546L828 548L830 555L832 556L833 560L829 560L819 566L819 571L827 574L826 580L828 581L828 585L824 588L818 585L811 585L803 581L804 582L802 587L798 587L791 585L789 582L786 581L783 582L776 579L775 581L771 576L766 575L748 579L745 579L745 577L743 577L738 581L732 580L726 583L724 582L716 585L717 588L715 589L715 591L711 595L705 596L703 599L694 595L677 601L677 604L670 607L668 605L665 605L664 607L655 607L649 605L648 606L643 602L643 599L633 597L631 597L627 602L625 602L621 608L615 610L610 610L607 607L603 608L600 605L598 608L591 607L585 604L584 606L582 606L582 609L584 611L581 611L581 613L576 616L576 620L573 624L571 631L565 631L561 633L556 632L554 633L554 635L550 635L550 633L542 629L540 630L540 628L536 627L534 619L535 618L533 614L531 614L530 610L530 607L533 603L528 604L526 602L524 604L517 604L509 600L505 600L504 598L502 599L497 594L498 591L493 594L488 594L487 589L483 587L485 577L482 570L476 567L472 569L471 562L467 562L465 561L466 560L459 562L455 558L452 560L451 558L450 559L451 554L454 554L456 552L459 554L464 552L465 550L463 546L460 545L459 542L462 538L460 536L460 531L457 527L457 522L459 520L457 516L448 513L442 512L442 514L440 515L441 516L439 517L434 514L435 513L432 507L433 505L435 505L435 503L433 502L431 496L428 495L428 492L430 491L430 489L436 489L438 485L435 479L438 473L442 470L447 471L452 465L457 463L459 464L460 463L457 460L458 458L461 460L467 460L475 454L478 459L478 464L483 465L484 462L485 463L491 460L492 462L494 462L500 453L499 451L502 445L507 441L511 443L525 443L526 439L533 437L533 432L545 429L556 421L562 418L567 418L573 412L579 412L579 408L582 406L580 400L582 397L580 397L579 394L581 388L589 385L584 382L590 378L594 378L591 372L593 368L587 357L586 348L584 347L585 342L583 335L585 331L580 327L579 324L575 325L575 323L573 322L578 317L581 318L592 314L596 315L603 311L610 310L616 306L619 311L628 311L632 313L634 312L635 308L627 301L627 299L629 294L629 288L638 270L642 253L644 251L644 246L647 245L665 254L683 253L688 258L694 252L702 251L705 246L702 222L702 215L705 207L707 205L717 205L725 201L726 198L728 198L730 195L729 193L731 191z"/></g><g><path stroke-linejoin="round" stroke-linecap="round" fill-rule="evenodd" stroke="#099" stroke-opacity="1" stroke-width="1" fill="#099" fill-opacity="0.2" class="leaflet-clickable" d="M747 385L741 381L734 381L730 379L733 372L732 369L739 361L743 349L745 348L746 351L748 343L750 345L751 342L750 336L748 336L748 332L742 319L758 319L752 347L757 350L758 355L761 358L764 356L767 357L769 355L770 357L779 362L780 365L779 369L770 371L767 376L763 375L763 372L748 374L743 373L744 379L741 378L743 381L746 381L748 383z"/></g><g><path stroke-linejoin="round" stroke-linecap="round" fill-rule="evenodd" stroke="#999" stroke-opacity="1" stroke-width="1" stroke-dasharray="1,6" fill="transparent" fill-opacity="0.2" class="leaflet-clickable" d="M698 282L704 279L708 281L710 280L713 284L703 294L703 298L699 304L696 305L694 311L695 318L693 318L693 320L690 321L689 327L686 324L686 329L684 329L681 326L682 314L680 309L685 299L684 298L694 293L696 283z"/></g><g><path stroke-linejoin="round" stroke-linecap="round" fill-rule="evenodd" stroke="#999" stroke-opacity="1" stroke-width="1" stroke-dasharray="1,6" fill="transparent" fill-opacity="0.2" class="leaflet-clickable" d="M692 340L683 347L685 343L684 338L689 339z"/></g><g><path stroke-linejoin="round" stroke-linecap="round" fill-rule="evenodd" stroke="#999" stroke-opacity="1" stroke-width="1" stroke-dasharray="1,6" fill="transparent" fill-opacity="0.2" class="leaflet-clickable" d="M846 435L840 437L805 436L799 432L791 433L789 431L785 432L781 430L777 431L774 429L765 428L765 420L762 417L761 413L757 411L755 405L760 402L762 398L754 389L750 390L746 388L748 383L747 381L741 379L743 379L743 373L748 374L763 372L762 374L767 376L770 371L779 369L779 362L782 364L784 363L785 366L787 365L793 369L801 368L807 365L812 367L823 365L826 367L830 367L835 383L837 407L843 413L845 421L844 428L847 434z"/></g><g><path stroke-linejoin="round" stroke-linecap="round" fill-rule="evenodd" stroke="#999" stroke-opacity="1" stroke-width="1" stroke-dasharray="1,6" fill="transparent" fill-opacity="0.2" class="leaflet-clickable" d="M890 447L877 444L868 440L861 440L850 435L846 435L847 434L844 426L845 421L842 411L840 411L840 409L836 405L835 383L829 367L838 362L834 360L839 359L833 350L832 339L834 336L835 327L839 322L837 318L838 316L850 316L860 319L866 317L869 317L871 319L880 319L896 327L900 332L902 332L902 334L907 336L910 340L916 341L917 343L926 341L927 342L925 344L924 350L929 351L938 375L948 385L948 391L941 395L939 400L941 400L940 403L944 406L941 408L943 411L942 413L936 418L928 420L924 424L924 426L922 425L920 420L917 421L911 427L906 428L898 435L892 444z"/></g><g><path stroke-linejoin="round" stroke-linecap="round" fill-rule="evenodd" stroke="#999" stroke-opacity="1" stroke-width="1" fill="transparent" fill-opacity="0.2" class="leaflet-clickable" d="M758 319L808 319L814 306L818 303L821 305L821 309L823 310L823 312L829 312L830 314L836 314L838 316L837 318L839 322L835 326L834 336L832 339L833 350L839 358L834 360L837 362L826 367L823 365L816 367L807 365L801 368L794 369L789 368L787 365L785 366L784 363L782 364L774 360L769 355L768 357L764 356L762 358L758 355L757 351L753 347L753 340L757 320z" stroke-dasharray="1,6"/></g><g><path stroke-linejoin="round" stroke-linecap="round" fill-rule="evenodd" stroke="#999" stroke-opacity="1" stroke-width="1" fill="transparent" fill-opacity="0.2" class="leaflet-clickable" d="M730 379L723 378L721 375L716 373L714 369L712 370L704 366L703 364L706 362L707 356L711 352L715 344L715 337L713 333L714 332L710 329L709 323L707 321L704 321L704 308L742 308L742 319L748 332L748 334L747 332L743 333L745 337L744 340L746 341L745 342L747 346L746 349L743 349L741 352L740 359L732 369L733 372L731 377z" stroke-dasharray="1,6"/></g><g><path stroke-linejoin="round" stroke-linecap="round" fill-rule="evenodd" stroke="#999" stroke-opacity="1" stroke-width="1" fill="transparent" fill-opacity="0.2" class="leaflet-clickable" d="M654 350L651 351L649 348L637 349L629 342L627 343L615 340L617 337L623 334L620 332L620 328L622 326L624 329L623 330L635 328L638 324L636 323L634 318L635 315L638 314L640 316L653 319L659 322L662 327L662 336L655 336L656 338L653 345L654 348z" stroke-dasharray="1,6"/></g><g><path stroke-linejoin="round" stroke-linecap="round" fill-rule="evenodd" stroke="#999" stroke-opacity="1" stroke-width="1" fill="transparent" fill-opacity="0.2" class="leaflet-clickable" d="M623 312L624 317L620 319L624 321L623 322L625 323L623 323L625 326L627 324L630 326L627 327L627 329L625 327L624 329L622 326L620 328L620 332L623 333L615 340L609 336L606 337L596 334L593 331L590 331L590 328L581 324L575 325L575 323L573 322L578 317L584 318L587 315L595 315L597 313L599 314L606 310L610 310L616 306L619 311L623 311z" stroke-dasharray="1,6"/></g><g><path stroke-linejoin="round" stroke-linecap="round" fill-rule="evenodd" stroke="#999" stroke-opacity="1" stroke-width="1" fill="transparent" fill-opacity="0.2" class="leaflet-clickable" d="M627 327L629 328L630 326L633 328L627 329z" stroke-dasharray="1,6"/></g><g><path stroke-linejoin="round" stroke-linecap="round" fill-rule="evenodd" stroke="#999" stroke-opacity="1" stroke-width="1" fill="transparent" fill-opacity="0.2" class="leaflet-clickable" d="M624 321L626 322L623 313L626 311L626 315L629 322L623 322z" stroke-dasharray="1,6"/></g><g><path stroke-linejoin="round" stroke-linecap="round" fill-rule="evenodd" stroke="#999" stroke-opacity="1" stroke-width="1" fill="transparent" fill-opacity="0.2" class="leaflet-clickable" d="M627 318L631 319L631 317L626 315L626 311L629 312L636 321L632 323L629 322L627 319z" stroke-dasharray="1,6"/></g><g><path stroke-linejoin="round" stroke-linecap="round" fill-rule="evenodd" stroke="#999" stroke-opacity="1" stroke-width="1" fill="transparent" fill-opacity="0.2" class="leaflet-clickable" d="M637 314L634 318L627 311L632 313L634 312z" stroke-dasharray="1,6"/></g><g><path stroke-linejoin="round" stroke-linecap="round" fill-rule="evenodd" stroke="#999" stroke-opacity="1" stroke-width="1" fill="transparent" fill-opacity="0.2" class="leaflet-clickable" d="M625 325L624 324L625 325z" stroke-dasharray="1,6"/></g><g><path stroke-linejoin="round" stroke-linecap="round" fill-rule="evenodd" stroke="#999" stroke-opacity="1" stroke-width="1" stroke-dasharray="1,6" fill="transparent" fill-opacity="0.2" class="leaflet-clickable" d="M689 597L687 595L686 586L682 585L681 583L679 583L679 581L674 579L674 573L663 565L662 553L666 549L664 533L653 521L653 489L667 472L668 441L667 430L664 425L666 419L664 407L664 405L666 404L665 397L672 400L676 399L684 402L684 404L686 402L690 404L695 404L695 407L696 406L697 408L695 415L699 415L695 417L694 421L705 421L705 423L707 424L707 421L713 420L715 421L714 429L717 427L721 427L718 424L724 420L720 419L724 418L723 415L726 414L725 412L726 413L729 408L726 404L729 400L733 398L733 400L735 399L735 390L746 388L750 390L754 389L756 393L762 398L762 400L755 405L757 411L761 413L762 417L765 420L764 428L780 431L781 430L785 432L799 432L805 436L840 437L843 435L850 435L861 440L868 440L876 444L890 447L889 453L870 456L863 488L856 496L858 502L857 503L822 513L818 512L813 518L806 518L806 522L809 525L811 525L811 523L815 523L815 540L821 542L825 547L826 546L829 550L830 555L832 556L833 560L829 560L823 563L819 569L820 571L827 574L826 580L829 586L822 588L821 586L804 582L802 587L799 587L791 585L789 582L786 581L783 582L781 580L776 579L775 581L771 576L766 575L749 579L745 579L745 577L743 577L736 581L732 580L726 583L724 582L718 584L716 585L717 588L715 591L711 595L704 596L703 599L695 595L690 596z"/></g><g><path stroke-linejoin="round" stroke-linecap="round" fill-rule="evenodd" stroke="#999" stroke-opacity="1" stroke-width="1" stroke-dasharray="1,6" fill="transparent" fill-opacity="0.2" class="leaflet-clickable" d="M635 395L635 391L632 388L633 385L636 386L636 384L639 384L641 382L649 382L657 380L661 377L675 377L676 379L676 377L681 376L679 372L682 371L682 367L686 369L693 365L697 367L701 365L712 370L714 369L716 373L721 375L723 378L728 378L734 381L741 381L747 385L745 389L735 390L734 396L736 399L733 400L733 398L729 400L726 404L726 406L729 408L726 414L723 415L724 418L721 417L720 419L724 420L718 424L721 427L716 427L714 429L715 422L713 419L710 418L709 420L706 421L707 418L701 415L701 417L698 418L697 421L694 421L695 417L699 415L695 415L695 412L697 410L695 404L690 404L687 402L684 404L684 402L676 399L672 400L660 396L655 399L649 395L637 395z"/></g><g><path stroke-linejoin="round" stroke-linecap="round" fill-rule="evenodd" stroke="#999" stroke-opacity="1" stroke-width="1" stroke-dasharray="1,6" fill="transparent" fill-opacity="0.2" class="leaflet-clickable" d="M653 489L621 489L621 460L620 454L618 453L618 450L616 450L618 445L607 449L606 451L598 452L595 454L593 452L589 455L590 457L591 456L591 458L592 457L594 459L593 460L591 458L589 461L591 462L597 460L599 463L600 489L579 489L570 484L572 469L560 466L550 466L540 473L538 473L537 471L532 472L531 467L533 463L542 457L544 453L543 450L550 447L547 438L539 431L545 429L556 421L569 416L574 412L579 412L579 408L582 406L583 403L594 403L598 401L599 404L602 405L603 402L605 403L615 402L618 400L620 401L628 398L629 396L634 396L640 393L640 395L649 395L655 399L660 396L664 397L666 404L664 407L666 413L664 425L667 430L668 440L667 472L665 475z"/></g><g><path stroke-linejoin="round" stroke-linecap="round" fill-rule="evenodd" stroke="#999" stroke-opacity="1" stroke-width="1" stroke-dasharray="1,6" fill="transparent" fill-opacity="0.2" class="leaflet-clickable" d="M620 459L621 489L600 489L600 468L598 461L618 459z"/></g><g><path stroke-linejoin="round" stroke-linecap="round" fill-rule="evenodd" stroke="#999" stroke-opacity="1" stroke-width="1" stroke-dasharray="1,6" fill="transparent" fill-opacity="0.2" class="leaflet-clickable" d="M457 524L459 520L457 516L450 513L449 514L442 512L442 514L440 515L441 516L439 517L434 514L435 513L432 507L433 505L435 505L435 502L433 502L431 496L428 495L428 492L430 491L430 489L436 489L438 485L437 482L435 481L435 478L437 477L439 472L442 470L447 471L453 465L457 463L459 464L460 463L457 460L458 458L467 460L470 457L472 457L472 455L475 454L478 459L478 465L483 465L484 462L486 463L491 460L492 462L494 462L500 453L499 451L501 449L501 446L507 441L511 443L525 443L528 438L532 437L535 431L539 431L547 438L550 447L543 450L544 453L542 457L535 461L531 467L532 472L537 471L538 473L525 474L512 478L503 478L502 481L495 486L489 484L481 486L474 483L470 484L471 488L468 491L470 499L473 498L473 496L479 494L477 495L474 503L479 503L478 499L482 495L488 496L486 498L488 502L479 504L485 511L490 514L494 514L494 516L492 517L495 517L498 520L498 526L495 534L496 536L494 535L491 540L489 537L480 542L482 535L472 534L468 526L464 524L459 524z"/></g><g><path stroke-linejoin="round" stroke-linecap="round" fill-rule="evenodd" stroke="#999" stroke-opacity="1" stroke-width="1" stroke-dasharray="1,6" fill="transparent" fill-opacity="0.2" class="leaflet-clickable" d="M562 508L558 509L541 520L524 541L521 552L523 557L518 566L522 570L519 573L516 573L528 584L524 586L524 588L528 590L526 597L527 598L525 601L526 602L524 604L517 604L505 600L503 598L502 599L497 594L497 591L493 594L489 594L487 588L483 587L485 582L486 583L484 580L485 577L481 570L476 567L472 569L471 562L467 562L465 561L466 560L459 562L455 558L452 560L451 558L450 559L449 556L451 554L454 554L455 552L457 554L460 554L463 551L465 551L465 547L460 544L459 541L462 538L460 536L460 531L457 527L457 524L463 524L468 526L471 529L472 534L482 534L480 542L489 537L490 540L494 535L495 536L497 530L498 520L495 517L492 517L494 516L494 514L488 514L479 504L483 502L488 502L486 498L488 497L483 495L478 499L479 503L474 503L475 499L479 494L477 494L475 497L473 496L473 498L470 499L468 491L471 488L469 484L476 484L481 486L489 484L495 486L498 485L503 479L519 477L525 474L540 473L548 467L552 466L547 471L547 479L545 481L546 483L548 483L547 485L545 486L543 483L542 485L544 472L538 476L529 475L526 476L530 480L528 485L519 493L515 494L516 502L520 502L523 498L524 499L526 495L537 491L545 501L548 501L553 506L556 507z"/></g><g><path stroke-linejoin="round" stroke-linecap="round" fill-rule="evenodd" stroke="#999" stroke-opacity="1" stroke-width="1" stroke-dasharray="1,6" fill="transparent" fill-opacity="0.2" class="leaflet-clickable" d="M570 484L566 508L553 506L549 501L546 501L537 491L526 495L524 499L523 498L521 500L521 502L516 502L517 500L515 494L519 494L519 491L523 490L528 485L530 480L526 477L529 475L538 476L544 472L542 485L543 483L545 486L548 484L551 485L557 482L560 479L559 478L567 476L564 470L553 472L554 474L551 476L551 478L553 479L548 483L547 471L552 466L560 466L572 469L571 479z"/></g><g><path stroke-linejoin="round" stroke-linecap="round" fill-rule="evenodd" stroke="#999" stroke-opacity="1" stroke-width="1" stroke-dasharray="1,6" fill="transparent" fill-opacity="0.2" class="leaflet-clickable" d="M584 603L580 600L577 595L579 584L578 583L582 578L582 574L578 567L573 563L574 559L578 554L578 552L574 553L575 549L585 543L587 538L586 533L589 530L588 529L582 535L582 538L571 550L569 550L570 551L569 548L572 544L568 543L567 548L564 552L561 552L561 550L558 549L559 554L551 554L545 550L543 552L542 550L539 550L541 544L544 544L552 513L558 509L566 509L570 484L579 489L625 489L622 502L613 522L601 561L605 570L608 585L604 585L602 580L599 581L599 579L599 581L594 581L592 578L588 583L585 581L588 584L585 600z"/></g><g><path stroke-linejoin="round" stroke-linecap="round" fill-rule="evenodd" stroke="#999" stroke-opacity="1" stroke-width="1" stroke-dasharray="1,6" fill="transparent" fill-opacity="0.2" class="leaflet-clickable" d="M585 604L584 606L582 606L582 609L584 611L581 611L581 613L576 616L576 620L573 624L571 631L565 631L561 633L556 632L554 633L554 635L550 635L546 630L543 631L543 629L536 627L533 614L531 614L530 610L531 606L535 604L537 598L549 592L545 587L548 584L547 581L551 578L551 575L554 574L554 571L562 569L563 567L561 562L563 561L566 564L570 561L569 557L571 550L588 529L589 530L586 533L587 538L585 543L576 549L574 553L577 552L578 554L573 562L578 567L583 576L583 578L578 583L579 584L577 595L580 600L585 603z"/></g><g><path stroke-linejoin="round" stroke-linecap="round" fill-rule="evenodd" stroke="#999" stroke-opacity="1" stroke-width="1" stroke-dasharray="1,6" fill="transparent" fill-opacity="0.2" class="leaflet-clickable" d="M531 606L533 603L528 604L525 601L527 598L526 594L528 591L524 586L527 584L526 581L521 579L520 576L516 573L519 573L522 570L518 566L523 557L521 552L522 544L526 540L531 531L541 520L552 513L544 544L542 544L542 538L538 540L537 543L541 543L539 550L542 550L542 552L545 550L561 556L561 552L564 552L566 550L567 553L570 551L570 549L570 561L566 564L564 561L561 562L563 566L562 569L554 571L555 572L551 575L551 578L547 580L548 583L545 589L549 592L543 594L541 597L539 596L536 599L534 605L532 606z"/></g><g><path stroke-linejoin="round" stroke-linecap="round" fill-rule="evenodd" stroke="#999" stroke-opacity="1" stroke-width="1" stroke-dasharray="1,6" fill="transparent" fill-opacity="0.2" class="leaflet-clickable" d="M625 489L653 489L653 521L664 533L666 542L666 548L662 553L662 562L665 567L670 569L674 573L674 579L676 581L679 581L679 583L681 583L684 586L686 586L687 595L689 597L677 601L677 604L670 607L667 605L662 607L655 607L649 605L648 606L643 602L643 598L638 599L631 597L628 601L622 604L622 607L618 610L609 609L612 604L612 601L607 597L609 586L605 570L601 561L613 522L618 513L624 493z"/></g><g><path stroke-linejoin="round" stroke-linecap="round" fill-rule="evenodd" stroke="#999" stroke-opacity="1" stroke-width="1" stroke-dasharray="1,6" fill="transparent" fill-opacity="0.2" class="leaflet-clickable" d="M608 585L609 590L607 593L607 597L612 601L612 604L609 609L607 607L601 607L600 605L599 608L591 607L595 587L597 584L595 582L602 580L604 585z"/></g><g><path stroke-linejoin="round" stroke-linecap="round" fill-rule="evenodd" stroke="#999" stroke-opacity="1" stroke-width="1" stroke-dasharray="1,6" fill="transparent" fill-opacity="0.2" class="leaflet-clickable" d="M566 551L569 545L568 544L572 543L569 551L567 553L566 551z"/></g><g><path stroke-linejoin="round" stroke-linecap="round" fill-rule="evenodd" stroke="#999" stroke-opacity="1" stroke-width="1" stroke-dasharray="1,6" fill="transparent" fill-opacity="0.2" class="leaflet-clickable" d="M591 607L584 603L586 598L586 592L588 589L588 584L585 581L588 583L592 578L594 580L599 581L595 582L597 584L595 587L591 606z"/></g><g><path stroke-linejoin="round" stroke-linecap="round" fill-rule="evenodd" stroke="#999" stroke-opacity="1" stroke-width="1" stroke-dasharray="1,6" fill="transparent" fill-opacity="0.2" class="leaflet-clickable" d="M607 579L606 576z"/></g><g><path stroke-linejoin="round" stroke-linecap="round" fill-rule="evenodd" stroke="#999" stroke-opacity="1" stroke-width="1" stroke-dasharray="1,6" fill="transparent" fill-opacity="0.2" class="leaflet-clickable" d="M571 545L572 544z"/></g><g><path stroke-linejoin="round" stroke-linecap="round" fill-rule="evenodd" stroke="#999" stroke-opacity="1" stroke-width="1" fill="transparent" fill-opacity="0.2" class="leaflet-clickable" d="M582 403L579 394L583 387L589 385L584 382L585 380L594 377L593 373L591 372L593 368L590 361L593 360L591 356L592 354L599 356L601 355L595 353L594 354L594 352L600 354L604 344L607 343L606 338L609 336L613 339L614 338L615 340L627 343L629 342L637 349L649 348L651 351L657 350L658 352L661 353L664 352L665 354L668 354L669 357L673 359L679 359L681 360L680 361L687 364L687 369L682 367L681 372L679 372L681 376L676 377L676 379L673 377L661 377L658 380L657 379L649 382L641 382L636 386L633 385L632 388L635 391L635 395L630 396L629 398L624 398L623 400L618 400L615 402L603 402L602 405L598 401L594 403L583 403z" stroke-dasharray="1,6"/></g><g><path stroke-linejoin="round" stroke-linecap="round" fill-rule="evenodd" stroke="#999" stroke-opacity="1" stroke-width="1" fill="transparent" fill-opacity="0.2" class="leaflet-clickable" d="M585 348L583 335L585 331L583 328L580 327L581 324L586 327L590 327L590 331L593 331L596 334L606 337L607 342L604 344L600 352L598 351L597 353L595 352L594 354L592 354L590 345L588 345L589 350L587 349z" stroke-dasharray="1,6"/></g><g><path stroke-linejoin="round" stroke-linecap="round" fill-rule="evenodd" stroke="#999" stroke-opacity="1" stroke-width="1" fill="transparent" fill-opacity="0.2" class="leaflet-clickable" d="M684 338L686 333L694 331L695 336L693 340L689 339z" stroke-dasharray="1,6"/></g><g><path stroke-linejoin="round" stroke-linecap="round" fill-rule="evenodd" stroke="#999" stroke-opacity="1" stroke-width="1" fill="transparent" fill-opacity="0.2" class="leaflet-clickable" d="M591 359L590 358z" stroke-dasharray="1,6"/></g><g><path stroke-linejoin="round" stroke-linecap="round" fill-rule="evenodd" stroke="#999" stroke-opacity="1" stroke-width="1" fill="transparent" fill-opacity="0.2" class="leaflet-clickable" d="M688 258L684 260L682 265L687 270L687 275L691 279L698 282L695 285L696 287L694 293L691 296L688 296L687 298L684 297L685 299L680 309L682 314L681 326L684 329L686 329L686 324L690 329L690 331L686 333L684 338L685 343L683 347L687 345L689 341L692 341L691 348L688 352L687 361L685 364L679 359L673 359L669 357L669 355L667 355L664 352L662 353L657 350L654 350L653 345L656 338L655 336L661 336L662 334L662 328L659 322L653 319L640 316L634 312L635 308L627 301L627 299L630 287L639 267L644 246L647 245L650 248L651 247L657 251L668 255L671 253L683 253L686 256z" stroke-dasharray="1,6"/></g><g><path stroke-linejoin="round" stroke-linecap="round" fill-rule="evenodd" stroke="#999" stroke-opacity="1" stroke-width="1" fill="transparent" fill-opacity="0.2" class="leaflet-clickable" d="M688 258L696 251L716 252L723 250L725 252L736 249L735 254L739 258L739 263L736 270L742 284L742 308L704 308L704 321L707 321L711 327L709 338L712 346L714 346L711 353L708 354L703 366L701 365L699 367L690 365L689 367L685 364L687 361L688 353L691 348L695 332L691 331L690 329L690 321L693 320L693 318L695 318L694 312L696 305L699 304L703 298L703 294L713 284L710 280L708 281L704 279L699 282L687 276L687 270L682 265L687 258z" stroke-dasharray="1,6"/></g><g><path stroke-linejoin="round" stroke-linecap="round" fill-rule="evenodd" stroke="#999" stroke-opacity="1" stroke-width="1" stroke-dasharray="1,6" fill="transparent" fill-opacity="0.2" class="leaflet-clickable" d="M772 213L768 216L769 220L766 222L769 223L772 227L769 227L770 228L765 237L764 243L767 245L763 245L755 241L745 239L735 243L736 249L725 252L720 250L716 252L702 251L702 249L705 246L705 240L703 236L701 218L705 207L708 205L717 205L725 201L730 195L729 193L731 191L729 185L732 181L740 180L745 183L747 180L753 179L755 186L752 188L756 194L757 193L760 196L757 199L758 201L769 206L771 208L771 212z"/></g><g><path stroke-linejoin="round" stroke-linecap="round" fill-rule="evenodd" stroke="#999" stroke-opacity="1" stroke-width="1" stroke-dasharray="1,6" fill="transparent" fill-opacity="0.2" class="leaflet-clickable" d="M772 213L779 216L782 220L793 218L795 223L797 223L798 225L805 224L806 229L811 230L812 235L814 237L813 239L815 241L814 243L820 254L822 253L824 255L824 259L827 263L826 267L828 268L823 276L826 282L826 286L819 295L818 303L814 305L808 319L742 319L742 284L736 270L739 263L739 258L735 254L735 244L747 239L748 244L750 244L752 247L762 250L764 249L767 246L764 243L765 238L770 228L769 227L772 227L769 223L766 222L769 220L768 216L771 214z"/></g><g><path stroke-linejoin="round" stroke-linecap="round" fill-rule="evenodd" stroke="#999" stroke-opacity="1" stroke-width="1" stroke-dasharray="1,6" fill="transparent" fill-opacity="0.2" class="leaflet-clickable" d="M714 347L712 346L709 338L711 330L715 336L715 344z"/></g><g><path stroke-linejoin="round" stroke-linecap="round" fill-rule="evenodd" stroke="#999" stroke-opacity="1" stroke-width="1" stroke-dasharray="1,6" fill="transparent" fill-opacity="0.2" class="leaflet-clickable" d="M620 459L603 461L597 460L592 462L589 461L591 458L593 460L594 459L592 457L591 458L591 456L590 457L589 455L592 452L595 454L598 452L606 451L606 449L618 445L616 450L618 450L618 453L620 454z"/></g><g><path stroke-linejoin="round" stroke-linecap="round" fill-rule="evenodd" stroke="#999" stroke-opacity="1" stroke-width="1" stroke-dasharray="1,6" fill="transparent" fill-opacity="0.2" class="leaflet-clickable" d="M548 484L546 484L545 482L547 479L548 483L550 480L553 480L551 479L553 472L564 470L567 476L559 477L557 482L551 485L548 484z"/></g><g><path stroke-linejoin="round" stroke-linecap="round" fill-rule="evenodd" stroke="#999" stroke-opacity="1" stroke-width="1" fill="transparent" fill-opacity="0.2" class="leaflet-clickable" d="M746 349L747 344L744 340L745 338L743 333L747 332L748 336L750 336L751 342L750 344L748 343L748 348L746 351z" stroke-dasharray="1,6"/></g><g><path stroke-linejoin="round" stroke-linecap="round" fill-rule="evenodd" stroke="#999" stroke-opacity="1" stroke-width="1" stroke-dasharray="1,6" fill="transparent" fill-opacity="0.2" class="leaflet-clickable" d="M748 239L767 246L765 246L764 249L755 248L748 244L748 240z"/></g><g><path stroke-linejoin="round" stroke-linecap="round" fill-rule="evenodd" stroke="#999" stroke-opacity="1" stroke-width="1" stroke-dasharray="1,6" fill="transparent" fill-opacity="0.2" class="leaflet-clickable" d="M709 420L710 418L714 420L709 420z"/></g><g><path stroke-linejoin="round" stroke-linecap="round" fill-rule="evenodd" stroke="#999" stroke-opacity="1" stroke-width="1" stroke-dasharray="1,6" fill="transparent" fill-opacity="0.2" class="leaflet-clickable" d="M706 421L707 424L705 421L697 421L698 418L701 417L701 415L706 417L706 420z"/></g><g><path stroke-linejoin="round" stroke-linecap="round" fill-rule="evenodd" stroke="#999" stroke-opacity="1" stroke-width="1" stroke-dasharray="1,6" fill="transparent" fill-opacity="0.2" class="leaflet-clickable" d="M630 326L627 324L625 325L623 323L631 323L636 321L636 323L638 323L635 328L632 327z"/></g><g><path stroke-linejoin="round" stroke-linecap="round" fill-rule="evenodd" stroke="#999" stroke-opacity="1" stroke-width="1" stroke-dasharray="1,6" fill="transparent" fill-opacity="0.2" class="leaflet-clickable" d="M624 318L626 319L626 321L622 321L620 319L622 318z"/></g><g><path stroke-linejoin="round" stroke-linecap="round" fill-rule="evenodd" stroke="#999" stroke-opacity="1" stroke-width="1" stroke-dasharray="1,6" fill="transparent" fill-opacity="0.2" class="leaflet-clickable" d="M626 329L623 330L626 328z"/></g><g><path stroke-linejoin="round" stroke-linecap="round" fill-rule="evenodd" stroke="#999" stroke-opacity="1" stroke-width="1" stroke-dasharray="1,6" fill="transparent" fill-opacity="0.2" class="leaflet-clickable" d="M630 329L629 329z"/></g><g><path stroke-linejoin="round" stroke-linecap="round" fill-rule="evenodd" stroke="#999" stroke-opacity="1" stroke-width="1" stroke-dasharray="1,6" fill="transparent" fill-opacity="0.2" class="leaflet-clickable" d="M627 318L628 315L631 317L631 319z"/></g><g><path stroke-linejoin="round" stroke-linecap="round" fill-rule="evenodd" stroke="#999" stroke-opacity="1" stroke-width="1" stroke-dasharray="1,6" fill="transparent" fill-opacity="0.2" class="leaflet-clickable" d="M590 361L589 359L591 359L587 357L585 348L588 350L588 345L590 345L592 350L592 361z"/></g><g><path stroke-linejoin="round" stroke-linecap="round" fill-rule="evenodd" stroke="#999" stroke-opacity="1" stroke-width="1" stroke-dasharray="1,6" fill="transparent" fill-opacity="0.2" class="leaflet-clickable" d="M592 354L595 353L601 355L593 355z"/></g><g><path stroke-linejoin="round" stroke-linecap="round" fill-rule="evenodd" stroke="#999" stroke-opacity="1" stroke-width="1" stroke-dasharray="1,6" fill="transparent" fill-opacity="0.2" class="leaflet-clickable" d="M600 352L600 354L597 353L598 351L600 352z"/></g><g><path stroke-linejoin="round" stroke-linecap="round" fill-rule="evenodd" stroke="#999" stroke-opacity="1" stroke-width="1" stroke-dasharray="1,6" fill="transparent" fill-opacity="0.2" class="leaflet-clickable" d="M599 353L600 353z"/></g><g><path stroke-linejoin="round" stroke-linecap="round" fill-rule="evenodd" stroke="#999" stroke-opacity="1" stroke-width="1" stroke-dasharray="1,6" fill="transparent" fill-opacity="0.2" class="leaflet-clickable" d="M589 359L587 357L589 357L590 359z"/></g><g><path stroke-linejoin="round" stroke-linecap="round" fill-rule="evenodd" stroke="#999" stroke-opacity="1" stroke-width="1" stroke-dasharray="1,6" fill="transparent" fill-opacity="0.2" class="leaflet-clickable" d="M567 549L566 550z"/></g><g><path stroke-linejoin="round" stroke-linecap="round" fill-rule="evenodd" stroke="#999" stroke-opacity="1" stroke-width="1" stroke-dasharray="1,6" fill="transparent" fill-opacity="0.2" class="leaflet-clickable" d="M542 544L540 542L537 543L538 540L542 538z"/></g><g><path stroke-linejoin="round" stroke-linecap="round" fill-rule="evenodd" stroke="#999" stroke-opacity="1" stroke-width="1" stroke-dasharray="1,6" fill="transparent" fill-opacity="0.2" class="leaflet-clickable" d="M568 544L568 548L567 546z"/></g><g><path stroke-linejoin="round" stroke-linecap="round" fill-rule="evenodd" stroke="#999" stroke-opacity="1" stroke-width="1" stroke-dasharray="1,6" fill="transparent" fill-opacity="0.2" class="leaflet-clickable" d="M561 552L561 556L558 554L557 555L559 554L558 549L561 550z"/></g><g><path stroke-linejoin="round" stroke-linecap="round" fill-rule="evenodd" stroke="#999" stroke-opacity="1" stroke-width="1" stroke-dasharray="1,6" fill="transparent" fill-opacity="0.2" class="leaflet-clickable" d="M599 581L599 579L599 581z"/></g><g><path stroke-linejoin="round" stroke-linecap="round" fill-rule="evenodd" stroke="#999" stroke-opacity="1" stroke-width="1" stroke-dasharray="1,6" fill="transparent" fill-opacity="0.2" class="leaflet-clickable" d="M570 549L569 550z"/></g><g><path stroke-linejoin="round" stroke-linecap="round" fill-rule="evenodd" stroke="#999" stroke-opacity="1" stroke-width="1" stroke-dasharray="1,6" fill="transparent" fill-opacity="0.2" class="leaflet-clickable" d="M571 544L571 544z"/></g></svg>